# xmcd
#
# Track frame offsets: 
#        150
#        23696
#        38165
#        54111
#        72497
#        89495
#        105768
#        119340
#        140587
#        156193
#        170507
#        188006
#        204867
#        221965
#        245596
#        262633
#
# Disc length: 3730 seconds
#
# Revision: 0
# Processed by: cddbd v1.5.2PL0 Copyright (c) Steve Scherf et al.
# Submitted via: ExactAudioCopyFreeDBPlugin 1.0
#
DISCID=d50e9010
DTITLE=Various Artist - New Country Rock 10
DYEAR=2015
DGENRE=Country
TTITLE0=Delta Moon - Sunshine
TTITLE1=Tempesta - Beer On The Table
TTITLE2=Rick Monroe - Hammer Down
TTITLE3=Kevin Chase - Born To Ride
TTITLE4=Eric Heatherly - Too High To Cry
TTITLE5=Hot'N'Nasty - Surrounding Blues
TTITLE6=Steff Nevers - 300 Horses
TTITLE7=Mark Shelby - Forty Days, Forty Nights
TTITLE8=John Campbelljohn - Good To Go
TTITLE9=Cody McCarver - You Can't Hide Money
TTITLE10=Buffalo C. Wayne - Her Daddy's Got A Gun
TTITLE11=Daryle Singletary - Rockin' In The Country
TTITLE12=Debbie Nunn - God Only Knows
TTITLE13=Steve Fister - I Just Wanna Scream
TTITLE14=Blues Bureau - Still Crying
TTITLE15=Tim Grimm - Rovin' Gambler
EXTD=
EXTT0=
EXTT1=
EXTT2=
EXTT3=
EXTT4=
EXTT5=
EXTT6=
EXTT7=
EXTT8=
EXTT9=
EXTT10=
EXTT11=
EXTT12=
EXTT13=
EXTT14=
EXTT15=
PLAYORDER=
